<svg width="50" height="50" viewBox="0 0 50 50" fill="none" xmlns="http://www.w3.org/2000/svg"><g clip-path="url(#clip0)" fill-rule="evenodd" clip-rule="evenodd"><path d="M44.25 11.55H34.3l-12.65 37.4h9.95l12.65-37.4z" fill="#E73E44"/><path d="M27.95.7H18L5.35 38.1h9.95L27.95.7z" fill="#fff"/><path d="M27.6 1.25h-9.15l-12.4 36.7h9.15l12.4-36.7zm8.7 4.95h-9.55L28.5 1l.15-.5H17.9l-.1.25L5.2 38.2l-.15.5H15.4l-1.65 4.95h9.95L36.3 6.2z" fill="#037BBF"/><path d="M4.15 18.95H50l-4 11.9H.15l4-11.9z" fill="#fff"/><path d="M27.05 19.65H37.7l-3.5 10.5H23.55l3.5-10.5zM15.8 19.65h10.65l-3.5 10.5H12.3l3.5-10.5zM4.65 19.65H15.3l-3.5 10.5H1.15l3.5-10.5z" fill="#037BBF"/><path d="M25.05 20.55l-.55 1.5c-4.05-.15-6.15.15-6.9 2.7-.85 2.7 1.7 2.95 5.1 2.9l-.55 1.6c-5.6.15-8.65-.25-7.2-4.5 1.5-4.65 4.6-4.2 10.1-4.2z" fill="#fff"/><path d="M38.35 19.65H49l-3.5 10.5H34.85l3.5-10.5z" fill="#037BBF"/><path d="M27.75 20.55l-3.1 8.75h2.95l2.4-7.2h3l-2.5 7.2h3l2.95-8.75h-8.7zM39.05 20.55l-3.1 8.75h2.95l2.4-7.2h3l-2.5 7.2h2.95l3-8.75h-8.7zM5.45 20.55L2.4 29.3h2.85l.95-2.75c4.35 0 6.25-.1 6.6-3 .3-2.25-.85-3.05-4.55-3.05l-2.8.05zm1.4 4.3l.95-2.8c1.45-.05 2.25.25 2.35 1.15-.05 1.4-1.25 1.7-3.3 1.65z" fill="#fff"/></g><defs><clipPath id="clip0"><path fill="#fff" d="M0 0h50v50H0z"/></clipPath></defs></svg>