<svg width="149" height="52" viewBox="0 0 149 52" fill="none" xmlns="http://www.w3.org/2000/svg"><path d="M41.96 15.265c-.451.15-.902.3-1.428.375 2.48 2.92 3.908 6.739 3.908 10.782 0 4.044-1.503 7.863-3.908 10.783.45.075.977.225 1.428.375 2.405-3.07 3.908-6.964 3.908-11.232 0-4.119-1.428-8.012-3.908-11.083z" fill="url(#paint0_linear)"/><path d="M11.82 32.862c-.377.3-.752.6-1.128.824 2.78 6.514 9.32 11.082 16.836 11.082.902 0 1.804-.075 2.631-.224.075-.525.226-.974.376-1.423-.977.15-1.954.3-3.007.3-7.065-.076-13.153-4.419-15.709-10.559z" fill="url(#paint1_linear)"/><path d="M30.159 8.451a14.958 14.958 0 00-2.63-.224c-7.367 0-13.68 4.343-16.612 10.558.376.224.752.524 1.128.823C14.675 13.693 20.613 9.5 27.528 9.5c1.053 0 2.03.074 3.007.299-.15-.45-.3-.899-.376-1.348z" fill="url(#paint2_linear)"/><path d="M8.136 17.587c.451.075.902.224 1.278.374 3.232-6.74 10.072-11.457 18.114-11.457.827 0 1.729.075 2.556.15 0-.45.075-.898.15-1.348-.902-.075-1.804-.15-2.706-.15-8.568.075-16.01 5.167-19.392 12.43z" fill="url(#paint3_linear)"/><path d="M27.528 47.763c.902 0 1.804-.075 2.706-.15-.075-.449-.15-.898-.15-1.347-.827.075-1.654.15-2.556.15-8.192 0-15.258-4.943-18.34-11.981-.45.15-.901.3-1.352.374 3.307 7.563 10.898 12.954 19.692 12.954z" fill="url(#paint4_linear)"/><path d="M44.59 13.693c-.376.3-.676.524-1.127.824 2.555 3.37 4.059 7.488 4.059 11.98 0 4.493-1.504 8.612-4.06 11.981.377.225.752.524 1.128.824a21.174 21.174 0 004.285-12.805c0-4.792-1.579-9.21-4.285-12.804z" fill="url(#paint5_linear)"/><path d="M46.62 11.222c-.226.45-.526.824-.827 1.198 3.007 3.894 4.886 8.76 4.886 14.077a22.54 22.54 0 01-4.886 14.078c.3.374.526.749.827 1.198 3.382-4.193 5.412-9.51 5.412-15.276 0-5.84-2.03-11.157-5.412-15.275z" fill="url(#paint6_linear)"/><path d="M27.528 49.56c-9.77 0-18.114-6.065-21.496-14.601-.526 0-1.053-.075-1.504-.15 3.383 9.36 12.402 16.1 23 16.1 1.353 0 2.631-.15 3.909-.3a19.64 19.64 0 01-.677-1.273c-1.052.075-2.104.224-3.232.224z" fill="url(#paint7_linear)"/><path d="M4.754 17.512c.45-.075.902-.15 1.428-.15h.075C9.79 9.125 17.983 3.359 27.528 3.359c1.053 0 2.18.075 3.232.225.15-.45.451-.898.677-1.273-1.278-.225-2.556-.3-3.909-.3-10.297.075-19.166 6.44-22.774 15.5z" fill="url(#paint8_linear)"/><path d="M6.182 31.514a5.38 5.38 0 005.412-5.391 5.379 5.379 0 00-5.412-5.391 5.38 5.38 0 00-5.412 5.39 5.38 5.38 0 005.412 5.392zm32.621 19.694a5.38 5.38 0 005.412-5.392 5.38 5.38 0 00-5.412-5.391 5.38 5.38 0 00-5.412 5.391 5.38 5.38 0 005.412 5.392zm0-38.713a5.38 5.38 0 005.412-5.392 5.38 5.38 0 00-5.412-5.391 5.38 5.38 0 00-5.412 5.391 5.38 5.38 0 005.412 5.392z" fill="#009A9D"/><path d="M105.021 12.27V9.125h1.429c.45 0 .826.15 1.052.375.3.3.376.674.376 1.123 0 .524-.151.899-.527 1.198-.375.3-.901.45-1.578.45h-.752zm3.683.899c.677-.6 1.053-1.423 1.053-2.471 0-.6-.151-1.198-.376-1.648-.226-.524-.601-.898-1.128-1.198-.451-.3-1.052-.449-1.653-.449h-3.458v9.96h1.804v-3.37h.677c1.353 0 2.33-.3 3.081-.824zm-30.516-.149h3.834v-1.723h-3.834V9.125h4.961V7.403h-6.765v9.96h7.141V15.64h-5.337v-2.62zm.376 16.323h3.758v-1.648h-3.758v-2.171h4.96v-1.722h-6.838v9.959H83.9v-1.722h-5.337v-2.696zm8.042-16.323h4.21v4.342h1.803V7.403h-1.803v3.894h-4.21V7.403h-1.803v9.96h1.803v-4.344zm10.448 4.342h1.88V9.125h3.081V7.403h-8.043v1.722h3.082v8.237zM73.528 7.403h-1.879v8.237h-4.284V7.403h-1.88v9.96h7.442v1.272h1.879V15.64h-1.278V7.404zm51.111 16.399h-1.879v8.237h-4.284v-8.237h-1.88v9.959h1.88v-.075h4.284v.075h1.278v1.273h1.879v-2.996h-1.278v-8.236zm-37.131 8.237l.376-.974 1.428-5.541h2.33v6.515h-4.134zm6.014-8.237h-5.563v.075l-1.803 7.038-.376 1.124h-1.128v2.995h1.804v-1.348h6.539v1.348H94.8v-2.996h-1.278v-8.236zm-22.55 6.739l2.18-3.594v6.814h1.804V23.8h-1.804l-2.856 4.868-2.931-4.867H65.56v9.959h1.804v-6.814l2.18 3.594h1.427zm37.883-.374l1.653-4.268 1.654 4.268h-3.307zm2.555-6.59h-1.804l-4.059 10.184h1.804l.752-1.872h4.66l.752 1.872h1.804l-3.909-10.184zm-13.68 7.338v-7.113h-1.803v9.959h1.804v-.075l4.735-7.114v7.189h1.879V23.8h-1.879l-4.735 7.114zm31.494 0v-7.113h-1.879v9.959h1.879v-.075l4.735-7.114v7.189h1.804V23.8h-1.804l-4.735 7.114zm15.108-7.113l-4.811 7.113v-7.113h-1.804v9.959h1.804v-.075h.075l4.736-7.114v7.189h1.804V23.8h-1.804zM65.56 46.94v-4.718h4.135v4.718h-1.128v-3.82h-1.879v3.82h-1.127zm5.262 1.797v-6.515h1.128v.749h.075c.075-.15.15-.225.225-.374.075-.15.226-.225.451-.3a1.8 1.8 0 01.677-.15c.376 0 .676.075 1.052.3.3.15.526.45.752.823.15.375.3.824.3 1.348 0 .524-.075.974-.225 1.348-.15.375-.376.674-.752.824-.3.224-.676.3-1.052.3-.3 0-.526-.075-.677-.15-.15-.075-.3-.225-.45-.3-.076-.15-.226-.224-.226-.374h-.075v2.546h-1.203v-.075zm1.128-4.119c0 .3.075.6.15.824.075.225.225.374.376.524.15.15.376.225.601.225a.855.855 0 00.601-.225c.15-.15.301-.3.376-.524a2.69 2.69 0 00.15-.824c0-.3-.075-.524-.15-.748-.075-.225-.225-.375-.376-.525a.855.855 0 00-.601-.224.856.856 0 00-.601.224c-.15.15-.3.3-.376.525-.15.15-.15.449-.15.748zm5.562.824l1.954-3.22h1.203v4.718H79.54v-3.22l-1.954 3.22h-1.203v-4.718h1.128v3.22zm6.538 1.498v-6.29h2.406c.526 0 .902.075 1.278.3.376.15.601.449.752.748.15.3.225.674.225 1.048 0 .375-.075.75-.225 1.049-.15.3-.452.524-.752.748-.376.15-.752.3-1.278.3h-1.578v-.973h1.428c.3 0 .526-.075.676-.15.15-.075.3-.225.376-.374.075-.15.15-.375.15-.6 0-.224-.075-.449-.15-.599a.77.77 0 00-.45-.374 1.892 1.892 0 00-.752-.15h-1.053v5.317h-1.052zm11.275-4.119h-1.202c0-.224-.075-.374-.15-.524-.076-.15-.226-.3-.301-.374l-.451-.225c-.15-.075-.376-.075-.526-.075-.376 0-.677.075-.902.225-.3.15-.451.45-.602.749-.15.3-.225.748-.225 1.198 0 .449.075.898.225 1.198.15.3.376.599.602.748.3.15.601.225.902.225.225 0 .376 0 .526-.075l.45-.224c.151-.075.226-.225.377-.375.075-.15.15-.3.225-.524h1.203c-.076.3-.15.6-.301.824-.15.224-.3.524-.601.674a1.794 1.794 0 01-.827.449c-.3.075-.677.15-1.052.15-.602 0-1.053-.15-1.504-.375a2.205 2.205 0 01-1.052-1.123c-.225-.45-.376-1.048-.376-1.722 0-.674.15-1.273.376-1.722.226-.45.601-.824 1.052-1.124a3.432 3.432 0 011.504-.374c.376 0 .676.075.977.15.3.075.601.224.827.45.225.224.45.448.6.673.076.45.151.749.226 1.123zm6.314-2.171v6.29h-1.127v-5.317h-2.857v5.317h-1.127v-6.29h5.111zm6.69 0v6.29h-1.128v-5.317h-2.856v5.317h-1.127v-6.29h5.111z" fill="#3C4C54"/><defs><linearGradient id="paint0_linear" x1="7.705" y1="26.399" x2="61.967" y2="26.514" gradientUnits="userSpaceOnUse"><stop stop-color="#009A9D"/><stop offset=".122" stop-color="#049C9F"/><stop offset=".254" stop-color="#11A1A4"/><stop offset=".389" stop-color="#27A9AD"/><stop offset=".528" stop-color="#45B5B9"/><stop offset=".669" stop-color="#6CC4C9"/><stop offset=".812" stop-color="#9BD7DC"/><stop offset=".954" stop-color="#D2ECF2"/><stop offset="1" stop-color="#E6F4FA"/></linearGradient><linearGradient id="paint1_linear" x1="7.679" y1="38.769" x2="61.941" y2="38.884" gradientUnits="userSpaceOnUse"><stop stop-color="#009A9D"/><stop offset=".122" stop-color="#049C9F"/><stop offset=".254" stop-color="#11A1A4"/><stop offset=".389" stop-color="#27A9AD"/><stop offset=".528" stop-color="#45B5B9"/><stop offset=".669" stop-color="#6CC4C9"/><stop offset=".812" stop-color="#9BD7DC"/><stop offset=".954" stop-color="#D2ECF2"/><stop offset="1" stop-color="#E6F4FA"/></linearGradient><linearGradient id="paint2_linear" x1="7.732" y1="13.899" x2="61.993" y2="14.014" gradientUnits="userSpaceOnUse"><stop stop-color="#009A9D"/><stop offset=".122" stop-color="#049C9F"/><stop offset=".254" stop-color="#11A1A4"/><stop offset=".389" stop-color="#27A9AD"/><stop offset=".528" stop-color="#45B5B9"/><stop offset=".669" stop-color="#6CC4C9"/><stop offset=".812" stop-color="#9BD7DC"/><stop offset=".954" stop-color="#D2ECF2"/><stop offset="1" stop-color="#E6F4FA"/></linearGradient><linearGradient id="paint3_linear" x1="7.737" y1="11.59" x2="61.998" y2="11.705" gradientUnits="userSpaceOnUse"><stop stop-color="#009A9D"/><stop offset=".122" stop-color="#049C9F"/><stop offset=".254" stop-color="#11A1A4"/><stop offset=".389" stop-color="#27A9AD"/><stop offset=".528" stop-color="#45B5B9"/><stop offset=".669" stop-color="#6CC4C9"/><stop offset=".812" stop-color="#9BD7DC"/><stop offset=".954" stop-color="#D2ECF2"/><stop offset="1" stop-color="#E6F4FA"/></linearGradient><linearGradient id="paint4_linear" x1="7.675" y1="41.041" x2="61.936" y2="41.156" gradientUnits="userSpaceOnUse"><stop stop-color="#009A9D"/><stop offset=".122" stop-color="#049C9F"/><stop offset=".254" stop-color="#11A1A4"/><stop offset=".389" stop-color="#27A9AD"/><stop offset=".528" stop-color="#45B5B9"/><stop offset=".669" stop-color="#6CC4C9"/><stop offset=".812" stop-color="#9BD7DC"/><stop offset=".954" stop-color="#D2ECF2"/><stop offset="1" stop-color="#E6F4FA"/></linearGradient><linearGradient id="paint5_linear" x1="7.705" y1="26.394" x2="61.967" y2="26.509" gradientUnits="userSpaceOnUse"><stop stop-color="#009A9D"/><stop offset=".122" stop-color="#049C9F"/><stop offset=".254" stop-color="#11A1A4"/><stop offset=".389" stop-color="#27A9AD"/><stop offset=".528" stop-color="#45B5B9"/><stop offset=".669" stop-color="#6CC4C9"/><stop offset=".812" stop-color="#9BD7DC"/><stop offset=".954" stop-color="#D2ECF2"/><stop offset="1" stop-color="#E6F4FA"/></linearGradient><linearGradient id="paint6_linear" x1="7.705" y1="26.39" x2="61.967" y2="26.505" gradientUnits="userSpaceOnUse"><stop stop-color="#009A9D"/><stop offset=".122" stop-color="#049C9F"/><stop offset=".254" stop-color="#11A1A4"/><stop offset=".389" stop-color="#27A9AD"/><stop offset=".528" stop-color="#45B5B9"/><stop offset=".669" stop-color="#6CC4C9"/><stop offset=".812" stop-color="#9BD7DC"/><stop offset=".954" stop-color="#D2ECF2"/><stop offset="1" stop-color="#E6F4FA"/></linearGradient><linearGradient id="paint7_linear" x1="7.671" y1="42.804" x2="61.932" y2="42.919" gradientUnits="userSpaceOnUse"><stop stop-color="#009A9D"/><stop offset=".122" stop-color="#049C9F"/><stop offset=".254" stop-color="#11A1A4"/><stop offset=".389" stop-color="#27A9AD"/><stop offset=".528" stop-color="#45B5B9"/><stop offset=".669" stop-color="#6CC4C9"/><stop offset=".812" stop-color="#9BD7DC"/><stop offset=".954" stop-color="#D2ECF2"/><stop offset="1" stop-color="#E6F4FA"/></linearGradient><linearGradient id="paint8_linear" x1="7.741" y1="9.772" x2="62.002" y2="9.887" gradientUnits="userSpaceOnUse"><stop stop-color="#009A9D"/><stop offset=".122" stop-color="#049C9F"/><stop offset=".254" stop-color="#11A1A4"/><stop offset=".389" stop-color="#27A9AD"/><stop offset=".528" stop-color="#45B5B9"/><stop offset=".669" stop-color="#6CC4C9"/><stop offset=".812" stop-color="#9BD7DC"/><stop offset=".954" stop-color="#D2ECF2"/><stop offset="1" stop-color="#E6F4FA"/></linearGradient></defs></svg>