<svg xmlns="http://www.w3.org/2000/svg" xmlns:xlink="http://www.w3.org/1999/xlink"><symbol id="arrow-big" viewBox="0 0 91 16"><path d="M90.707 8.707a1 1 0 000-1.414L84.343.929a1 1 0 10-1.414 1.414L88.586 8l-5.657 5.657a1 1 0 001.414 1.414l6.364-6.364zM0 9h90V7H0v2z"/></symbol><symbol id="arrow-medium" viewBox="0 0 47 16"><path d="M46.707 8.707a1 1 0 000-1.414L40.343.929a1 1 0 10-1.414 1.414L44.586 8l-5.657 5.657a1 1 0 001.414 1.414l6.364-6.364zM0 9h46V7H0v2z"/></symbol><symbol id="arrow" viewBox="0 0 26 16"><path d="M25.707 8.707a1 1 0 000-1.414L19.343.929a1 1 0 10-1.414 1.414L23.586 8l-5.657 5.657a1 1 0 001.414 1.414l6.364-6.364zM0 9h25V7H0v2z"/></symbol></svg>